# xmcd
#
# Track frame offsets:
#	150
#	14614
#	33286
#	48118
#	61014
#	75746
#	91066
#	103506
#	115762
#	128290
#	147058
#	159846
#	170782
#	190794
#	209378
#	227130
#	238758
#	254746
#	270926
#
# Disc length: 3795 seconds
#
# Revision: 0
# Processed by: cddbd v1.5.1PL2 Copyright (c) Steve Scherf et al.
# Submitted via: EasyCDDAExtractor 7.5.0.1
#
DISCID=ed0ed113
DTITLE=HPSK GRASS - BOTY TOULAVY
DYEAR=1900
DGENRE=
TTITLE0=SILVER JAMES
TTITLE1=HEARTACHES
TTITLE2=FOTKA
TTITLE3=JODY'S TUNE
TTITLE4=TOULAM SE PLANI
TTITLE5=NO TAK JA COURAM
TTITLE6=LONESOME INDIAN
TTITLE7=SETKANI
TTITLE8=DEAR OLD DIXIE
TTITLE9=KDYZ VE DVERICH STOJI
TTITLE10=BOTY TOULAVY
TTITLE11=ZLUTY VLAK
TTITLE12=MONROE'S BLUES
TTITLE13=MAS PROC ZIT
TTITLE14=HORAL
TTITLE15=THEME TIME
TTITLE16=CIZINEC
TTITLE17=TENNESSEE BLUES
TTITLE18=BILY KUN
EXTD=
EXTT0=
EXTT1=
EXTT2=
EXTT3=
EXTT4=
EXTT5=
EXTT6=
EXTT7=
EXTT8=
EXTT9=
EXTT10=
EXTT11=
EXTT12=
EXTT13=
EXTT14=
EXTT15=
EXTT16=
EXTT17=
EXTT18=
PLAYORDER=
